# xmcd CD database file
#
# Track frame offsets:
#	150
#	18402
#	35939
#	57842
#	74604
#	99678
#	138883
#	169352
#	208702
#	232747
#
# Disc length: 4013 seconds
#
# Revision: 0
# Processed by: cddbd v1.5.1PL0 Copyright (c) Steve Scherf et al.
# Submitted via: Feurio! 1.66 - http://www.feurio.com
#
DISCID=8f0fab0a
DTITLE=Wintertime Blues - The Benefit Concert CD2
DYEAR=1900
DGENRE=
TTITLE0=Susan Tedeschi - Angel from Montgomery
TTITLE1=Cry Of Love - Pretty as You Please
TTITLE2=Cry Of Love - Peace Pipe
TTITLE3=Gov't Mule - Bad Little Doggie
TTITLE4=Gov't Mule and Johnny Neel - Lay Your Burden Down
TTITLE5=Gov't Mule and Johnny Neel - Fallen Down
TTITLE6=Gov't Mule and Johnny Neel - Devil Likes It Slow
TTITLE7=Gov't Mule and Bruce Hampton - Spoonful
TTITLE8=Gov't Mule and Little Milton - When The Blues Come Knockin'
TTITLE9=Gov't Mule and Little Milton - Merry Christmas, Baby
EXTD=
EXTT0=
EXTT1=
EXTT2=
EXTT3=
EXTT4=
EXTT5=
EXTT6=
EXTT7=
EXTT8=
EXTT9=
PLAYORDER=
